<?xml version="1.0" encoding="utf-8"?>
<!-- Generator: Adobe Illustrator 19.2.1, SVG Export Plug-In . SVG Version: 6.00 Build 0)  -->
<svg version="1.1" xmlns="http://www.w3.org/2000/svg" xmlns:xlink="http://www.w3.org/1999/xlink" x="0px" y="0px"
	 viewBox="0 0 30 60" style="enable-background:new 0 0 30 60;" xml:space="preserve">
<style type="text/css">
	.st0{fill:none;stroke:#000000;stroke-linecap:round;stroke-linejoin:round;stroke-miterlimit:10;}
	.st1{display:none;}
	.st2{display:inline;}
	.st3{display:inline;fill:none;stroke:#000000;stroke-linecap:round;stroke-linejoin:round;stroke-miterlimit:10;}
</style>
<g id="char-plus">
	<g id="group-char-plus">
		<g>
			<line class="st0" x1="5" y1="30" x2="25" y2="30"/>
			<line class="st0" x1="15" y1="20" x2="15" y2="40"/>
		</g>
	</g>
</g>
<g id="char-asterix">
	<g>
		<line class="st0" x1="12.5" y1="0" x2="12.5" y2="5"/>
		<line class="st0" x1="12.5" y1="10" x2="12.5" y2="15"/>
		<line class="st0" x1="20" y1="7.5" x2="15" y2="7.5"/>
		<line class="st0" x1="10" y1="7.5" x2="5" y2="7.5"/>
		<line class="st0" x1="17.8" y1="2.2" x2="14.3" y2="5.7"/>
		<line class="st0" x1="10.7" y1="9.3" x2="7.2" y2="12.8"/>
		<line class="st0" x1="17.8" y1="12.8" x2="14.3" y2="9.3"/>
		<line class="st0" x1="10.7" y1="5.7" x2="7.2" y2="2.2"/>
	</g>
</g>
<g id="char-equal">
	<g>
		<line class="st0" x1="5" y1="25" x2="25" y2="25"/>
		<line class="st0" x1="5" y1="35" x2="25" y2="35"/>
	</g>
</g>
<g id="char-dollar">
	<path class="st0" d="M0,45c0,8.3,6.7,15,15,15c8.3,0,15-6.7,15-15s-6.7-15-15-15C6.7,30,0,23.3,0,15S6.7,0,15,0c8.3,0,15,6.7,15,15
		"/>
	<line class="st0" x1="15" y1="-5" x2="15" y2="65"/>
</g>
<g id="char-at">
	<g>
		<path class="st0" d="M30,55V45c0-8.3-6.7-15-15-15C6.7,30,0,36.7,0,45c0,8.3,6.7,15,15,15"/>
		<g>
			<circle class="st0" cx="15" cy="45" r="5"/>
			<line class="st0" x1="20" y1="45" x2="20" y2="55"/>
		</g>
		<path class="st0" d="M30,55L30,55c0,2.8-2.2,5-5,5l0,0c-2.8,0-5-2.2-5-5l0,0"/>
	</g>
</g>
<g id="char-caret">
	<polyline class="st0" points="20,10 15,0 10,10 	"/>
</g>
<g id="char-bracketleft">
	<polyline class="st0" points="20,0 10,0 10,60 20,60 	"/>
</g>
<g id="char-bracketright_1_">
	<polyline class="st0" points="10,0 20,0 20,60 10,60 	"/>
</g>
<g id="char-curlyleft">
	<path class="st0" d="M20,0h-5c-2.8,0-5,2.2-5,5v20c0,2.8-2.2,5-5,5c2.8,0,5,2.2,5,5v20c0,2.8,2.2,5,5,5h5"/>
</g>
<g id="char-curlyright">
	<path class="st0" d="M10,0h5c2.8,0,5,2.2,5,5v20c0,2.8,2.2,5,5,5c-2.8,0-5,2.2-5,5v20c0,2.8-2.2,5-5,5h-5"/>
</g>
<g id="char-lessthan">
	<polyline class="st0" points="30,30 0,45 30,60 	"/>
</g>
<g id="char-greaterthan">
	<polyline class="st0" points="0,30 30,45 0,60 	"/>
</g>
<g id="char-percent">
	<g>
		<line class="st0" x1="30" y1="0" x2="0" y2="60"/>
		<circle class="st0" cx="10" cy="10" r="10"/>
		<circle class="st0" cx="20" cy="50" r="10"/>
	</g>
</g>
<g id="char-parenthleft">
	<path class="st0" d="M30,60C13.4,60,0,46.6,0,30S13.4,0,30,0"/>
</g>
<g id="char-parenthright">
	<path class="st0" d="M0,60c16.6,0,30-13.4,30-30S16.6,0,0,0"/>
</g>
<g id="char-slash">
	<line class="st0" x1="0" y1="60" x2="30" y2="0"/>
</g>
<g id="char-backslash">
	<line class="st0" x1="30" y1="60" x2="0" y2="0"/>
</g>
<g id="char-bar">
	<line class="st0" x1="15" y1="0" x2="15" y2="60"/>
</g>
<g id="char-pound">
	<g>
		<line class="st0" x1="0" y1="25" x2="30" y2="25"/>
		<line class="st0" x1="0" y1="35" x2="30" y2="35"/>
		<line class="st0" x1="20" y1="15" x2="20" y2="45"/>
		<line class="st0" x1="10" y1="15" x2="10" y2="45"/>
	</g>
</g>
<g id="char-ampersandalt">
	<g>
		<g>
			<circle class="st0" cx="15" cy="15" r="15"/>
			<path class="st0" d="M15,30C6.7,30,0,36.7,0,45c0,8.3,6.7,15,15,15c8.3,0,15-6.7,15-15V35"/>
		</g>
		<path class="st0" d="M40,30c0,0,0,5-10,5C5,35,5,60,5,60"/>
		<path class="st0" d="M5,60c0,2.8-2.2,5-5,5"/>
		<path class="st0" d="M0,65c-2.8,0-5-2.2-5-5"/>
	</g>
</g>
<g id="char-ampersand">
	<path class="st0" d="M23.6,36.4c0-3.6,2.9-6.4,6.4-6.4h8.6"/>
	<circle class="st0" cx="15" cy="15" r="15"/>
	<path class="st0" d="M15,30C6.7,30,0,36.7,0,45c0,8.3,6.7,15,15,15c8.3,0,15-6.7,15-15V30"/>
</g>
<g id="char-exclamation">
	<g id="group-char-exclamation">
		<line class="st0" x1="5" y1="50" x2="5" y2="60"/>
		<line class="st0" x1="5" y1="40" x2="5" y2="0"/>
	</g>
</g>
<g id="char-period">
	<g id="group-char-period">
		<line class="st0" x1="0" y1="50" x2="10" y2="60"/>
		<line class="st0" x1="0" y1="60" x2="10" y2="50"/>
	</g>
</g>
<g id="char-question">
	<g id="group-char-question">
		<path class="st0" d="M15,40V30c8.3,0,15-6.7,15-15c0-8.3-6.7-15-15-15C6.7,0,0,6.7,0,15"/>
		<line class="st0" x1="15" y1="50" x2="15" y2="60"/>
	</g>
</g>
<g id="char-semicolon">
	<g id="group-char-semicolon">
		<path class="st0" d="M5,55v5c0,2.8-2.2,5-5,5"/>
		<line class="st0" x1="5" y1="35" x2="5" y2="45"/>
	</g>
</g>
<g id="char-colon">
	<g id="group-char-colon">
		<line class="st0" x1="5" y1="40" x2="5" y2="50"/>
		<line class="st0" x1="5" y1="20" x2="5" y2="30"/>
	</g>
</g>
<g id="char-tilde">
	<path class="st0" d="M25,25c0,2.8-2.2,5-5,5H10c-2.8,0-5,2.2-5,5"/>
</g>
<g id="char-comma">
	<path class="st0" d="M5,55v5c0,2.8-2.2,5-5,5"/>
</g>
<g id="char-apostrophe">
	<path class="st0" d="M10,10V5c0-2.8-2.2-5-5-5"/>
</g>
<g id="char-quote">
	<line class="st0" x1="10" y1="0" x2="10" y2="10"/>
</g>
<g id="char-doublequote">
	<g id="group-char-doublequote">
		<line class="st0" x1="10" y1="0" x2="10" y2="10"/>
		<line class="st0" x1="15" y1="0" x2="15" y2="10"/>
	</g>
</g>
<g id="char-dash">
	<line class="st0" x1="5" y1="30" x2="25" y2="30"/>
</g>
<g id="char-underscore">
	<line class="st0" x1="2" y1="60" x2="28" y2="60"/>
</g>
<g id="char-9">
	<g id="group-char-9">
		<line class="st0" x1="30" y1="15" x2="30" y2="60"/>
		<circle class="st0" cx="15" cy="15" r="15"/>
	</g>
</g>
<g id="char-8">
	<g id="group-char-8">
		<circle class="st0" cx="15" cy="45" r="15"/>
		<circle class="st0" cx="15" cy="15" r="15"/>
	</g>
</g>
<g id="char-7">
	<g id="group-char-7">
		<line class="st0" x1="5" y1="30" x2="25" y2="30"/>
		<line class="st0" x1="30" y1="0" x2="0" y2="60"/>
		<line class="st0" x1="0" y1="0" x2="30" y2="0"/>
	</g>
</g>
<g id="char-6">
	<g id="group-char-6">
		<path class="st0" d="M0,45V15C0,6.7,6.7,0,15,0c8.3,0,15,6.7,15,15"/>
		<circle class="st0" cx="15" cy="45" r="15"/>
	</g>
</g>
<g id="char-5">
	<path class="st0" d="M0,45c0,8.3,6.7,15,15,15c8.3,0,15-6.7,15-15c0-8.3-6.7-15-15-15H0V0h30"/>
</g>
<g id="char-4">
	<polyline class="st0" points="25,60 25,0 0,30 30,30 	"/>
</g>
<g id="char-3">
	<path class="st0" d="M0,45c0,8.3,6.7,15,15,15c8.3,0,15-6.7,15-15c0-8.3-6.7-15-15-15c8.3,0,15-6.7,15-15c0-8.3-6.7-15-15-15
		C6.7,0,0,6.7,0,15"/>
</g>
<g id="char-2">
	<path class="st0" d="M30,60H0l27.5-36.6C29.1,21,30,18.1,30,15c0-8.3-6.7-15-15-15C6.7,0,0,6.7,0,15"/>
</g>
<g id="char-1">
	<polyline class="st0" points="15,0 0,10 15,0 15,60 0,60 30,60 	"/>
</g>
<g id="char-0">
	<g id="group-char-0">
		<line class="st0" x1="5" y1="5" x2="25" y2="55"/>
		<path class="st0" d="M30,45V15c0-8.3-6.7-15-15-15C6.7,0,0,6.7,0,15v30c0,8.3,6.7,15,15,15C23.3,60,30,53.3,30,45z"/>
	</g>
</g>
<g id="char-z">
	<polyline class="st0" points="30,60 0,60 30,30.3 0,30.3 	"/>
</g>
<g id="char-y">
	<g>
		<line class="st0" x1="0" y1="30" x2="12" y2="60"/>
		<line class="st0" x1="30" y1="30" x2="0" y2="80"/>
	</g>
</g>
<g id="char-x">
	<g>
		<line class="st0" x1="0" y1="30" x2="30" y2="60"/>
		<line class="st0" x1="30" y1="30" x2="0" y2="60"/>
	</g>
</g>
<g id="char-w">
	<g>
		<path class="st0" d="M0,30v22.5C0,56.6,3.4,60,7.5,60c4.1,0,7.5-3.4,7.5-7.5c0,4.1,3.4,7.5,7.5,7.5s7.5-3.4,7.5-7.5V30"/>
		<line class="st0" x1="15" y1="52.5" x2="15" y2="45"/>
	</g>
</g>
<g id="char-v">
	<polyline class="st0" points="30,30 15,60 0,30 	"/>
</g>
<g id="char-u" class="st1">
	<g class="st2">
		<path class="st0" d="M30,30v15c0,8.3-6.7,15-15,15C6.7,60,0,53.3,0,45V30"/>
		<line class="st0" x1="30" y1="45" x2="30" y2="60"/>
	</g>
</g>
<g id="char-t" class="st1">
	<g class="st2">
		<path class="st0" d="M10,0v50c0,5.5,4.5,10,10,10s10-4.5,10-10"/>
		<line class="st0" x1="0" y1="30" x2="30" y2="30"/>
	</g>
</g>
<g id="char-s" class="st1">
	<g class="st2">
		<path class="st0" d="M30,37.5c0-4.1-3.4-7.5-7.5-7.5h-15C3.4,30,0,33.4,0,37.5S3.4,45,7.5,45h15c4.1,0,7.5,3.4,7.5,7.5
			S26.6,60,22.5,60h-15C3.4,60,0,56.6,0,52.5"/>
	</g>
</g>
<g id="char-r" class="st1">
	<g class="st2">
		<path class="st0" d="M30,45c0-8.3-6.7-15-15-15C6.7,30,0,36.7,0,45v15V30"/>
	</g>
</g>
<g id="char-q" class="st1">
	<g id="group-char-q" class="st2">
		<polyline class="st0" points="30,30 30,80 40,70 		"/>
		<circle class="st0" cx="15" cy="45" r="15"/>
	</g>
</g>
<g id="char-p" class="st1">
	<g class="st2">
		<g>
			<circle class="st0" cx="15" cy="45" r="15"/>
		</g>
		<line class="st0" x1="0" y1="30" x2="0" y2="80"/>
	</g>
</g>
<g id="char-o" class="st1">
	<g class="st2">
		<circle class="st0" cx="15" cy="45" r="15"/>
	</g>
</g>
<g id="char-n" class="st1">
	<g class="st2">
		<path class="st0" d="M30,60V45c0-8.3-6.7-15-15-15C6.7,30,0,36.7,0,45v15V30"/>
	</g>
</g>
<g id="char-m" class="st1">
	<g class="st2">
		<g>
			<path class="st0" d="M30,60V37.5c0-4.1-3.4-7.5-7.5-7.5S15,33.4,15,37.5c0-4.1-3.4-7.5-7.5-7.5C3.4,30,0,33.4,0,37.5V60"/>
			<line class="st0" x1="15" y1="37.5" x2="15" y2="45"/>
		</g>
		<line class="st0" x1="0" y1="40" x2="0" y2="30"/>
	</g>
</g>
<g id="char-l" class="st1">
	<path class="st3" d="M5,0h5c2.8,0,5,2.2,5,5v50c0,2.8,2.2,5,5,5h5"/>
</g>
<g id="char-k" class="st1">
	<g class="st2">
		<line class="st0" x1="0" y1="45" x2="30" y2="60"/>
		<line class="st0" x1="0" y1="45" x2="20" y2="30"/>
		<line class="st0" x1="0" y1="60" x2="0" y2="0"/>
	</g>
</g>
<g id="char-j" class="st1">
	<g id="group-char-j" class="st2">
		<path class="st0" d="M30,30h-5c-2.8,0-5,2.2-5,5v35c0,5.5-4.5,10-10,10C4.5,80,0,75.5,0,70"/>
		<line class="st0" x1="20" y1="25" x2="20" y2="15"/>
	</g>
</g>
<g id="char-i" class="st1">
	<g class="st2">
		<line class="st0" x1="10" y1="25" x2="10" y2="15"/>
		<path class="st0" d="M0,30h10v20c0,5.5,4.5,10,10,10s10-4.5,10-10"/>
	</g>
</g>
<g id="char-h" class="st1">
	<path class="st3" d="M30,60V45c0-8.3-6.7-15-15-15C6.7,30,0,36.7,0,45v15V0"/>
</g>
<g id="char-g" class="st1">
	<g id="group-char-g" class="st2">
		<path class="st0" d="M30,45v20c0,8.3-6.7,15-15,15C6.7,80,0,73.3,0,65"/>
		<circle class="st0" cx="15" cy="45" r="15"/>
	</g>
</g>
<g id="char-f" class="st1">
	<g class="st2">
		<path class="st0" d="M15,30"/>
		<line class="st0" x1="0" y1="30" x2="30" y2="30"/>
		<path class="st0" d="M0,60h5c2.8,0,5-2.2,5-5V10c0-5.5,4.5-10,10-10s10,4.5,10,10"/>
	</g>
</g>
<g id="char-e" class="st1">
	<path class="st3" d="M25.6,55.6C22.7,58.5,18.8,60,15,60C6.7,60,0,53.3,0,45c0-8.3,6.7-15,15-15c8.3,0,15,6.7,15,15H0"/>
</g>
<g id="char-d" class="st1">
	<g id="group-char-d" class="st2">
		<line class="st0" x1="30" y1="60" x2="30" y2="0"/>
		<circle class="st0" cx="15" cy="45" r="15"/>
	</g>
</g>
<g id="char-c" class="st1">
	<path class="st3" d="M25.6,34.4c-5.9-5.9-15.4-5.9-21.2,0c-5.9,5.9-5.9,15.4,0,21.2c5.9,5.9,15.4,5.9,21.2,0"/>
</g>
<g id="char-b" class="st1">
	<g id="group-char-b" class="st2">
		<circle class="st0" cx="15" cy="45" r="15"/>
		<line class="st0" x1="0" y1="60" x2="0" y2="0"/>
	</g>
</g>
<g id="char-a" class="st1">
	<g id="group-char-a" class="st2">
		<line class="st0" x1="30" y1="45" x2="30" y2="60"/>
		<circle class="st0" cx="15" cy="45" r="15"/>
	</g>
</g>
<g id="char-Z" class="st1">
	<polyline class="st3" points="30,60 0,60 30,0 0,0 	"/>
</g>
<g id="char-Y" class="st1">
	<g id="group-char-Y" class="st2">
		<line class="st0" x1="15" y1="30" x2="15" y2="60"/>
		<line class="st0" x1="15" y1="30" x2="30" y2="0"/>
		<line class="st0" x1="0" y1="0" x2="15" y2="30"/>
	</g>
</g>
<g id="char-X" class="st1">
	<g id="group-char-X" class="st2">
		<line class="st0" x1="0" y1="60" x2="30" y2="0"/>
		<line class="st0" x1="0" y1="0" x2="30" y2="60"/>
	</g>
</g>
<g id="char-W" class="st1">
	<polyline class="st3" points="0,0 0,60 15,10 30,60 30,0 	"/>
</g>
<g id="char-V" class="st1">
	<polyline class="st3" points="0,0 15,60 30,0 	"/>
</g>
<g id="char-U" class="st1">
	<path class="st3" d="M0,0v45c0,8.3,6.7,15,15,15c8.3,0,15-6.7,15-15V0"/>
</g>
<g id="char-T" class="st1">
	<polyline class="st3" points="30,0 0,0 15,0 15,60 	"/>
</g>
<g id="char-S" class="st1">
	<path class="st3" d="M0,45c0,8.3,6.7,15,15,15c8.3,0,15-6.7,15-15s-6.7-15-15-15C6.7,30,0,23.3,0,15C0,6.7,6.7,0,15,0
		c8.3,0,15,6.7,15,15"/>
</g>
<g id="char-R" class="st1">
	<g id="group-char-R" class="st2">
		<line class="st0" x1="0" y1="30" x2="30" y2="60"/>
		<path class="st0" d="M0,30h15c8.3,0,15-6.7,15-15c0-8.3-6.7-15-15-15H0v60"/>
	</g>
</g>
<g id="char-Q" class="st1">
	<g id="group-char-Q" class="st2">
		<line class="st0" x1="30" y1="60" x2="15" y2="45"/>
		<path class="st0" d="M30,45V15c0-8.3-6.7-15-15-15C6.7,0,0,6.7,0,15v30c0,8.3,6.7,15,15,15C23.3,60,30,53.3,30,45z"/>
	</g>
</g>
<g id="char-P" class="st1">
	<path class="st3" d="M0,30h15c8.3,0,15-6.7,15-15c0-8.3-6.7-15-15-15H0v60"/>
</g>
<g id="char-O" class="st1">
	<path class="st3" d="M30,45V15c0-8.3-6.7-15-15-15C6.7,0,0,6.7,0,15v30c0,8.3,6.7,15,15,15C23.3,60,30,53.3,30,45z"/>
</g>
<g id="char-N" class="st1">
	<polyline class="st3" points="0,60 0,0 30,60 30,0 	"/>
</g>
<g id="char-M" class="st1">
	<polyline class="st3" points="30,60 30,0 15,50 0,0 0,60 	"/>
</g>
<g id="char-L" class="st1">
	<polyline class="st3" points="30,60 0,60 0,0 	"/>
</g>
<g id="char-K" class="st1">
	<g id="group-char-K" class="st2">
		<polyline class="st0" points="30,0 0,30 30,60 		"/>
		<line class="st0" x1="0" y1="0" x2="0" y2="60"/>
	</g>
</g>
<g id="char-J" class="st1">
	<path class="st3" d="M10,0h20v45c0,8.3-6.7,15-15,15C6.7,60,0,53.3,0,45"/>
</g>
<g id="char-I" class="st1">
	<polyline class="st3" points="30,0 0,0 15,0 15,60 0,60 30,60 	"/>
</g>
<g id="char-H" class="st1">
	<g id="group-char-H" class="st2">
		<line class="st0" x1="0" y1="30" x2="30" y2="30"/>
		<line class="st0" x1="30" y1="60" x2="30" y2="0"/>
		<line class="st0" x1="0" y1="60" x2="0" y2="0"/>
	</g>
</g>
<g id="char-G" class="st1">
	<path class="st3" d="M30,15c0-8.3-6.7-15-15-15C6.7,0,0,6.7,0,15v30c0,8.3,6.7,15,15,15c8.3,0,15-6.7,15-15V30H10"/>
</g>
<g id="char-F" class="st1">
	<g id="group-char-F" class="st2">
		<line class="st0" x1="0" y1="30" x2="10" y2="30"/>
		<polyline class="st0" points="0,60 0,0 30,0 		"/>
	</g>
</g>
<g id="char-E" class="st1">
	<g id="group-char-E" class="st2">
		<line class="st0" x1="0" y1="30" x2="10" y2="30"/>
		<polyline class="st0" points="30,60 0,60 0,0 30,0 		"/>
	</g>
</g>
<g id="char-D" class="st1">
	<path class="st3" d="M30,15c0-8.3-6.7-15-15-15H0v60h15c8.3,0,15-6.7,15-15V15z"/>
</g>
<g id="char-C" class="st1">
	<path class="st3" d="M30,15c0-8.3-6.7-15-15-15C6.7,0,0,6.7,0,15v30c0,8.3,6.7,15,15,15c8.3,0,15-6.7,15-15"/>
</g>
<g id="char-B" class="st1">
	<path class="st3" d="M15,0c8.3,0,15,6.7,15,15s-6.7,15-15,15c8.3,0,15,6.7,15,15s-6.7,15-15,15H0V0H15z"/>
</g>
<g id="char-A" class="st1">
	<g id="group-char-A" class="st2">
		<line class="st0" x1="22.5" y1="30" x2="7.5" y2="30"/>
		<polyline class="st0" points="30,60 15,0 0,60 		"/>
	</g>
</g>
</svg>
