<?xml version="1.0" encoding="utf-8"?>
<!-- Generator: Adobe Illustrator 19.2.1, SVG Export Plug-In . SVG Version: 6.00 Build 0)  -->
<svg version="1.1" xmlns="http://www.w3.org/2000/svg" xmlns:xlink="http://www.w3.org/1999/xlink" x="0px" y="0px"
	 viewBox="0 0 40 60" style="enable-background:new 0 0 40 60;" xml:space="preserve">
<style type="text/css">
	.st0{display:none;}
	.st1{display:inline;}
	.st2{fill:none;stroke:#000000;stroke-miterlimit:10;}
	.st3{display:inline;fill:none;stroke:#000000;stroke-miterlimit:10;}
	.st4{display:inline;fill:none;stroke:#000000;stroke-miterlimit:5;}
	.st5{fill:none;stroke:#000000;stroke-miterlimit:5;}
</style>
<g id="char-asterix" class="st0">
	<g class="st1">
		<g>
			<line class="st2" x1="-5" y1="22.5" x2="10" y2="37.5"/>
			<line class="st2" x1="10" y1="22.5" x2="-5" y2="37.5"/>
		</g>
		<g>
			<line class="st2" x1="-10" y1="30" x2="15" y2="30"/>
			<line class="st2" x1="2.5" y1="17.5" x2="2.5" y2="42.5"/>
		</g>
	</g>
</g>
<g id="char-plus" class="st0">
	<g class="st1">
		<line class="st2" x1="-10" y1="30" x2="20" y2="30"/>
		<line class="st2" x1="5" y1="15" x2="5" y2="45"/>
	</g>
</g>
<g id="char-equal" class="st0">
	<g class="st1">
		<line class="st2" x1="-10" y1="25" x2="20" y2="25"/>
		<line class="st2" x1="-10" y1="35" x2="20" y2="35"/>
	</g>
</g>
<g id="char-dollar" class="st0">
	<g class="st1">
		<path class="st2" d="M25,7.5c-1.6,2.1-4.2,3.3-6.8,3.2c-2.1-0.1-4.1-1.1-6.1-1.8c-5.5-2-12.6-2.3-17.5,1.3c-2.7,2-4.5,5.1-4.5,8.5
			C-10,24.9-4.1,30,3.1,30h8.8C19.1,30,25,35,25,41.2c0,3.4-1.8,6.5-4.5,8.5C15.6,53.4,8.4,53,2.9,51c-2-0.7-4-1.7-6.1-1.8
			c-2.6-0.1-5.2,1.1-6.8,3.2"/>
		<g>
			<line class="st2" x1="4.7" y1="0" x2="4.7" y2="60"/>
			<line class="st2" x1="10.3" y1="0" x2="10.3" y2="60"/>
		</g>
	</g>
</g>
<g id="char-at" class="st0">
	<path class="st3" d="M22.5,57.7c-3,1.5-6.4,2.3-10,2.3C0.1,60-10,49.9-10,37.5S0.1,15,12.5,15H35v28.1c0,3.1-2.5,5.6-5.6,5.6
		c-3.1,0-5.6-2.5-5.6-5.6V26.3H12.5c-6.2,0-11.3,5-11.3,11.3s5,11.3,11.3,11.3h0c6.2,0,11.3-5,11.3-11.3"/>
</g>
<g id="char-caret" class="st0">
	<polyline class="st4" points="5,15 -2.5,0 -10,15 	"/>
</g>
<g id="char-bracketleft" class="st0">
	<polyline class="st3" points="8,0 -10,0 -10,60 8,60 	"/>
</g>
<g id="char-bracketright" class="st0">
	<polyline class="st3" points="-10,60 8,60 8,0 -10,0 	"/>
</g>
<g id="char-curlyleft" class="st0">
	<path class="st3" d="M8.8,0C3.9,0-1.3,2.3-4,6.4c-2.9,4.5-2,9.3-0.5,14.1c0.9,2.8,1.5,6.3-0.5,8.8c-1.2,1.6-3.3,2.5-5.1,3.1
		c1.8,0.7,3.8,1.6,5.1,3.1c2,2.5,1.4,6,0.5,8.8C-6,49.3-6.9,54.1-4,58.6C-1.3,62.7,3.9,65,8.8,65"/>
</g>
<g id="char-curlyright" class="st0">
	<path class="st3" d="M-10,65c4.8,0,10.1-2.3,12.7-6.4c2.9-4.5,2-9.3,0.5-14.1c-0.9-2.8-1.5-6.3,0.5-8.8c1.2-1.6,3.3-2.5,5.1-3.1
		c-1.8-0.7-3.8-1.6-5.1-3.1c-2-2.5-1.4-6-0.5-8.8c1.5-4.8,2.5-9.6-0.5-14.1C0.1,2.3-5.2,0-10,0"/>
</g>
<g id="char-lessthan" class="st0">
	<polyline class="st4" points="17.5,11.3 -10,30 17.5,48.8 	"/>
</g>
<g id="char-greaterthan" class="st0">
	<polyline class="st4" points="-10,48.8 17.5,30 -10,11.3 	"/>
</g>
<g id="char-percent" class="st0">
	<g class="st1">
		<circle class="st2" cx="2.5" cy="12.5" r="12.5"/>
		<circle class="st2" cx="33.8" cy="47.5" r="12.5"/>
		<g>
			<path class="st5" d="M2.5,0c2.9,0,5.7,0,8.4,0.6c2.6,0.6,5,1.5,7.5,2.3c1.9,0.6,4,1.1,6.2,1.1c4-0.1,7.2-2,9.2-4L2.5,60"/>
		</g>
	</g>
</g>
<g id="char-parenthleft" class="st0">
	<path class="st3" d="M8.8,0C8.8,0-10,7.5-10,32.5S8.8,65,8.8,65"/>
</g>
<g id="char-parenthright" class="st0">
	<path class="st3" d="M-10,0c0,0,18.8,7.5,18.8,32.5S-10,65-10,65"/>
</g>
<g id="char-slash" class="st0">
	<line class="st3" x1="8.8" y1="0" x2="-10" y2="65"/>
</g>
<g id="char-backslash" class="st0">
	<line class="st3" x1="-10" y1="0" x2="8.8" y2="65"/>
</g>
<g id="char-bar" class="st0">
	<line class="st3" x1="-10" y1="0" x2="-10" y2="65"/>
</g>
<g id="char-pound" class="st0">
	<g class="st1">
		<line class="st2" x1="5" y1="15" x2="-3.8" y2="40"/>
		<line class="st2" x1="12.5" y1="15" x2="3.8" y2="40"/>
		<line class="st2" x1="-10" y1="30" x2="17.5" y2="30"/>
		<line class="st2" x1="-7.5" y1="23.8" x2="20" y2="23.8"/>
	</g>
</g>
<g id="char-ampersand" class="st0">
	<g class="st1">
		<path class="st2" d="M43.8,61.3C25,51.3-2.5,28.8-2.5,12.5C-2.5,5.6,3.1,0,10,0c6.9,0,12.5,5.6,12.5,12.5S16.9,25,10,25
			c-11,0-20,9-20,20s9,20,20,20c11,0,20-9,20-20V30"/>
		<line class="st2" x1="16.3" y1="30" x2="43.8" y2="30"/>
	</g>
</g>
<g id="char-exclamation" class="st0">
	<g class="st1">
		<circle class="st2" cx="2.5" cy="57.5" r="2.5"/>
		<path class="st2" d="M-10,0h5c4.1,0,7.5,3.4,7.5,7.5l0,37.5"/>
	</g>
</g>
<g id="char-period" class="st0">
	<circle class="st3" cx="-7.5" cy="57.5" r="2.5"/>
</g>
<g id="char-question" class="st0">
	<g class="st1">
		<circle class="st2" cx="8.8" cy="57.5" r="2.5"/>
		<path class="st2" d="M-10,18.8C-10,8.4-1.6,0,8.8,0s18.8,8.4,18.8,18.8S19.1,37.5,8.8,37.5V45"/>
	</g>
</g>
<g id="char-semicolon" class="st0">
	<g class="st1">
		<circle class="st2" cx="-5" cy="37.5" r="2.5"/>
		<path class="st2" d="M-7.5,57.5c0-1.4,1.1-2.5,2.5-2.5s2.5,1.1,2.5,2.5C-2.6,61.9-10,65-10,65"/>
	</g>
</g>
<g id="char-colon" class="st0">
	<g class="st1">
		<circle class="st2" cx="-7.5" cy="37.5" r="2.5"/>
		<circle class="st2" cx="-7.5" cy="57.5" r="2.5"/>
	</g>
</g>
<g id="char-tilde" class="st0">
	<path class="st3" d="M-10,32.5c0,0,1.2-6.3,6.9-6.3s5,7.5,10.9,7.5s7.2-6.3,7.2-6.3"/>
</g>
<g id="char-comma_1_" class="st0">
	<path class="st3" d="M-7.5,57.5c0-1.4,1.1-2.5,2.5-2.5s2.5,1.1,2.5,2.5C-2.6,61.9-10,65-10,65"/>
</g>
<g id="char-quote" class="st0">
	<path class="st3" d="M-7.5,2.5C-7.5,1.1-6.4,0-5,0s2.5,1.1,2.5,2.5C-2.6,6.9-10,10-10,10"/>
</g>
<g id="char-doublequote" class="st0">
	<g class="st1">
		<path class="st2" d="M-7.5,2.5C-7.5,1.1-6.4,0-5,0s2.5,1.1,2.5,2.5C-2.6,6.9-10,10-10,10"/>
		<path class="st2" d="M0,2.5C0,1.1,1.1,0,2.5,0S5,1.1,5,2.5C4.9,6.9-2.5,10-2.5,10"/>
	</g>
</g>
<g id="char-underscore" class="st0">
	<line class="st3" x1="-10" y1="60" x2="30" y2="60"/>
</g>
<g id="char-dash" class="st0">
	<line class="st3" x1="-10" y1="30" x2="17.5" y2="30"/>
</g>
<g id="char-9" class="st0">
	<path class="st3" d="M5.7,70C10.9,58.7,26,31.9,20.6,19.9C16.1,10,1.2,14.6,0.1,24.9c-1.4,13.2,15.5,16.4,21,8.1"/>
</g>
<g id="char-8" class="st0">
	<path class="st3" d="M24.1,50.9C20.3,64.7-3.2,62.5,0.4,46.2c2.8-12.8,23.3-10.7,25.2-21.9C27.8,11.1,9,8.1,7,21.7
		C5.3,32.8,28.2,36,24.1,50.9z"/>
</g>
<g id="char-7" class="st0">
	<g class="st1">
		<path class="st2" d="M1.5,13.9c0,0,3.2-0.6,9.2,0c6,0.6,8.7,0,8.7,0L0,70"/>
		<path class="st2" d="M1.5,43.5c0,0,3.3-1.5,7.7,0s7.2,0,7.2,0"/>
	</g>
</g>
<g id="char-6" class="st0">
	<path class="st3" d="M13.5,12.8c-3.8,9.4-9.2,18-12,27.8c-1.3,4.5-2.6,9.6-0.1,13.9c2.1,3.6,6.5,6.2,10.7,5.3
		c7.5-1.6,11.1-12.9,8.5-19.4c-1.6-4-5.7-7-9.9-6.3c-4.2,0.7-7.4,4.8-9.7,8.2"/>
</g>
<g id="char-5" class="st0">
	<path class="st3" d="M27.6,14.2c0,0-3.4-0.3-7.7,0c-5.6,0.5-7.2,0-7.2,0L6.8,35.1c9.9-0.6,14.4,6.6,11.6,15.6
		C14.3,63.9-3,63.2,0.4,47.5"/>
</g>
<g id="char-4" class="st0">
	<g class="st1">
		<g>
			<line class="st2" x1="21.1" y1="13.9" x2="6.9" y2="70"/>
		</g>
		<path class="st2" d="M7.8,14.3L0,43.3c0,0,4-1.5,9.2,0s8.7,0,8.7,0"/>
	</g>
</g>
<g id="char-3" class="st0">
	<path class="st3" d="M6.9,15.3c0,0,3.3-0.5,6.9,0c3.6,0.5,5.4,0.6,8,0C21,16.7,7,35.6,7,35.6c10.1-0.6,14.7,6.7,11.8,16
		C14.6,65-3,64.3,0.5,48.2"/>
</g>
<g id="char-2" class="st0">
	<path class="st3" d="M3.5,28.9c0-9.3,8.1-18.7,13.7-11.7c7.1,9-15.4,40-17.2,42.7c4-0.3,5.7-1.1,9.2,0c5.2,1.6,8.7,0,8.7,0"/>
</g>
<g id="char-1" class="st0">
	<g class="st1">
		<path class="st2" d="M8.6,27.6c0,0,8.6-9.4,12.5-12.9C20.5,19.8,9.2,60,9.2,60"/>
		<path class="st2" d="M0,60c0,0,4-1.5,9.2,0s8.7,0,8.7,0"/>
	</g>
</g>
<g id="char-0" class="st0">
	<path class="st3" d="M18,14.1c10.6,1.5,5.5,48-10,45.8C-8.2,57.6,2.7,12,18,14.1z"/>
</g>
<g id="char-Z" class="st0">
	<path class="st3" d="M0,4.2c0,0,6.7-7.7,14.9-2.2c9.8,6.5,24-0.7,24-0.7L2.4,81.4c0,0,17.8-3.3,23.5,0.4C33.4,86.6,41,81,41,81"/>
</g>
<g id="char-Y" class="st0">
	<g class="st1">
		<path class="st2" d="M15.6,46.5c0,0-16.6,11.6-19.5,19.4s2.2,13.6,5.5,14.4c3.9,1,8.8-4.6,8.8-4.6"/>
		<path class="st2" d="M-1.7,9.9c0,0,11.5,3.7,14.7-3s-2-8.6-4-5.5S6.1,7.2,6.1,7.2c-4.4,10.1-14.9,28.5-5.3,37
			c22.7,20,31.4-38.3,44.7-43.3"/>
	</g>
</g>
<g id="char-X" class="st0">
	<g class="st1">
		<path class="st2" d="M24.6,0.2C23.2,17.5,14.4,38,8.6,54.2C5.3,63.6,4.2,74.8-7.3,80.3"/>
		<path class="st2" d="M-11.6,8.7c22.6-40,25.4,75.2,43.8,71.3"/>
	</g>
</g>
<g id="char-W" class="st0">
	<path class="st3" d="M8.5,9.8c4,1.3,9.5,1.4,11.8-2.8c1.1-2,2-6.8-1.5-6.8c-3.7-0.1-5,4.9-5.8,7.6C9.5,19,7.4,30.8,4.5,42.2
		C1.4,54.7-1.9,67.2-5.3,79.7c5.9-8.9,11.9-17.9,17.8-26.8c9.5-14.3,19.1-28.7,28.6-43c2.2-3.3,4.4-6.6,6.6-9.9
		c-4.5,18.9-9.2,37.7-14.1,56.4c-2,7.8-4.1,15.5-6.2,23.3c6.6-10.2,13.3-20.4,20-30.5C57.3,34.2,60,28,71.1,13.9
		c1.2-1.6,2.6-3.9,4.4-5c3.7-2.3,4.1,2.8,3.5,5.2"/>
</g>
<g id="char-V" class="st0">
	<path class="st3" d="M16.9,0.1C15.1,3.8,11.4,8,7.2,9C4,9.7-1.2,7.9,0.2,3.7c1.2-3.5,6.6-5.4,8.6-1.6c1,1.9,1.2,4.5,1.5,6.5
		c0.5,2.7,0.9,5.4,1.2,8.2c2.9,21.1,4.3,42.4,6.7,63.6c4.4-16,8.1-32.2,12-48.4c1.8-7.4,3.3-15,5.7-22.2c2-5.9,8.7-13,14.9-7.2"/>
</g>
<g id="char-U" class="st0">
	<g class="st1">
		<path class="st2" d="M17.3,0C11.1,18.3,2.8,39.3,0.4,59.4C-0.5,67-0.4,77.8,9,79.5c8.6,1.6,15.7-3.5,20.2-10.4
			c4.2-6.5,4.7-7.8,6.5-15.6"/>
		<path class="st2" d="M43.2,69.7c0,0-3.8,10.3-9.8,10.3c-3.5,0-3.2-3.9-2.3-8.1c1.1-5.3,0.6-3.2,18.3-71.9"/>
	</g>
</g>
<g id="char-T" class="st0">
	<g class="st1">
		<path class="st2" d="M9.4,68.9c0,0-3.8,10.3-9.8,10.3c-3.5,0-3.2-3.9-2.3-8.1c0.9-4.2,17.8-69.6,17.8-69.6"/>
		<path class="st2" d="M-19.5,17.6C-18,2.7-4.1-0.8,8.7,0.1c7,0.5,12.4,4,19.1,5.5c7.5,1.7,15.6-0.7,22.1-4.5"/>
	</g>
</g>
<g id="char-S" class="st0">
	<path class="st3" d="M37.1,21C45.4,5,23.5-6.9,11.7,4.6c-8.2,8-2.6,16,5.4,20.8c7.3,4.3,14.9,8.9,19.6,16.2
		c9.8,15.4,2.2,32.5-14.9,37c-14.3,3.7-31.5,0.3-27-18C-3.4,53,6,44.4,13.6,44.7c5.2,0.2,4,5.5-0.6,6.2c-5.5,0.7-10.7-3-13-6.7"/>
</g>
<g id="char-R" class="st0">
	<g class="st1">
		<path class="st2" d="M-5.4,80.5c9-32.7,16.8-65.6,16.8-65.6"/>
		<path class="st2" d="M37.8,70.2c0,0-3.8,10.3-9.8,10.3c-3.5,0-3.7-3.8-2.3-8.1c1.3-4.3,5.8-11.9,0.9-17.6S4.1,44.4,4.1,44.4
			c12.4,3.2,27.5,1.7,34.5-5.7c7-7.5,6.1-19.7,0.7-27.1c-12.5-17-42.9-15-52.1,4.6"/>
	</g>
</g>
<g id="char-Q" class="st0">
	<path class="st3" d="M0,52.6C0.4,35.6,7.2,10.7,23.6,2.2C44.3-8.6,44.2,23.9,43.1,35.8C41.6,52.2,33.7,82,11.8,79.4
		c-8-0.9-16-7.4-11.1-15.9c4.6-7.9,15.6-7.7,22.4-2.9c7.1,5,9,17.6,18.2,19.2c7.6,1.4,11.1-5.9,10.3-12.3"/>
</g>
<g id="char-P" class="st0">
	<g class="st1">
		<path class="st2" d="M-5.1,79.6c7.2-26.3,16.4-64.4,16.4-64.4"/>
		<path class="st2" d="M-15,16.1C-3.6-8.2,31.6-3.5,40.5,20.3c4.7,12.5,2.7,25.1-10.9,29.6C18.5,53.6,7.2,50,5.9,36.8"/>
	</g>
</g>
<g id="char-O" class="st0">
	<path class="st3" d="M31.2,0.1c18.4,2.6,9.4,83.2-17.3,79.3C-14.1,75.3,4.7-3.6,31.2,0.1z"/>
</g>
<g id="char-N" class="st0">
	<path class="st3" d="M-11.5,59.6c-2.8,3.9-7.2,14.9-2.3,18.9c3.3,2.7,6.1,0.7,8-2.1C-0.1,68,15.8,0,15.8,0l9.4,80.2
		C34.2,47.5,45.5,0,45.5,0s2.1,4.6,5.7,4.7c3.7,0.1,7.3-3.9,7.3-3.9"/>
</g>
<g id="char-M" class="st0">
	<path class="st3" d="M-14.3,60.1c-3.9,2.8-11.5,12-8,17.3c2.3,3.6,5.6,2.5,8.2,0.5c8-6.3,13.7-17.3,18.9-25.8
		c10.4-16.9,20-34.4,29.1-52c-6.5,26.9-13.1,53.8-20.4,80.5c15-26.8,30-53.6,45-80.5c-3.3,12.5-6.5,25-9.7,37.5
		c-1.3,5.1-3,10.3-3.8,15.5c-0.8,5.4,1.5,9.5,6.8,5.2c2.6-2.1,4.3-5.4,5.4-8.5"/>
</g>
<g id="char-L" class="st0">
	<path class="st3" d="M50.9,69.9c-8.2,5.5-18.2,9-28.2,8.4C12.6,77.8,7,72.4-1.6,68.4c-4.2-2-8.3-2.5-11.9,1
		c-2.8,2.6-4.5,7.5,0.1,9.4c8.4,3.4,14.6-11.9,17-17.1C11.6,43.7,12.7,23,21,5.4c5.1-10.8,14.4-2.8,6.7,0.8C22.1,9,9.8,1.2,3.4,0.5"
		/>
</g>
<g id="char-K" class="st0">
	<g class="st1">
		<path class="st2" d="M-5,80.1C4,47.4,15.3,0,15.3,0"/>
		<path class="st2" d="M39,0C36,8.7,32.4,17.9,26.8,25.3C20.9,32.9,12.5,38.9,4.4,44c4.6-3.4,12.1-1.6,16.6,1.2
			c6.7,4.1,5.6,11.2,3.2,17.6c-1.3,3.5-7.8,13.8-3,16.8c5,3,9.9-6.6,11.2-10"/>
	</g>
</g>
<g id="char-J" class="st0">
	<path class="st3" d="M23.6,44.1c0,0-2.9,4.2-9.8,5c-5.6,0.6-18.2-0.9-29.4,7.7C-20.3,60.3-25.9,65.6-26,72
		c-0.1,2.9,1.6,5.9,4.1,7.3c3.7,2.1,7.7,0.8,10.9-1.5c0.3-0.2,0.6-0.4,0.9-0.6c9.2-7.2,10.7-19.3,13.6-29.9
		c1.9-7.1,3.8-14.1,5.7-21.3c1.6-6.2,1.8-6.6,3.4-12.8c1.1-3.5,2.5-8.6,5.4-11c4.6-3.8,9.9,1.5,5,5.2C17,12.1,3.9,1.5-3.6,0"/>
</g>
<g id="char-I" class="st0">
	<path class="st3" d="M9.2,70c0,0-3.8,10.3-9.8,10.3c-3.5,0-3.2-3.9-2.3-8.1c0.9-4.2,15.7-59,15.7-59c1.1-3.5,2.5-8.6,5.4-11
		c4.6-3.8,9.9,1.5,5,5.2C17.1,12.1,4.1,1.5-3.4,0"/>
</g>
<g id="char-H" class="st0">
	<g class="st1">
		<line class="st2" x1="34.2" y1="0.1" x2="14.9" y2="80.2"/>
		<path class="st2" d="M16.1,0c-0.7,2.6-1.4,4.9-2.1,7.5c-1.6,6.2-3.3,12.2-4.9,18.4C7.3,33,5.4,40,3.4,47.1
			C0.6,57.7-1,69.9-10.2,77.1c-0.3,0.2-0.6,0.4-0.9,0.6c-3.2,2.3-7.2,3.6-10.9,1.5c-2.6-1.5-4.2-4.4-4.1-7.3
			c0.1-6.4,5.7-11.6,10.4-15.2c11.3-8.6,40.8-7.1,46.4-7.7c6.9-0.8,9.8-5,9.8-5"/>
	</g>
</g>
<g id="char-G" class="st0">
	<g class="st1">
		<path class="st2" d="M38.1,81.8l7.7-30.2C42.7,68.1,31.3,89.8,9.6,78.2c-18.7-10-5.8-43.1,2.3-56C17,14.1,38.7-9.9,49.8,4.5
			c4.9,6.4-1.7,22.5-9.1,24.3c-7.8,1.9-1.1-13.9,11.2-7.3"/>
		<path class="st2" d="M62.6,52.5c0,0-4.5-2.8-16.8-1s-18.7-1-18.7-1"/>
	</g>
</g>
<g id="char-F" class="st0">
	<g class="st1">
		<path class="st2" d="M-5.1,80.1C3.9,47.4,15.2,0,15.2,0"/>
		<path class="st2" d="M-8.5,17.9C-7.1,2.9,6.9-0.6,19.6,0.4c7,0.5,12.4,4,19.1,5.5c7.5,1.7,15.6-0.7,22.1-4.5"/>
		<path class="st2" d="M-11,39.5c0,0,3.2-4.7,15.5-2.8c12.3,1.8,17.3-1.2,17.3-1.2"/>
	</g>
</g>
<g id="char-E" class="st0">
	<path class="st3" d="M51.9,21.2c-12.3-6.7-19,9.2-11.2,7.3c7.4-1.8,14.2-18,9.1-24.3S20.4-3.2,11.7,15.7s8.3,22.1,8.3,22.1
		S2.3,41.3,0.2,59.5S16.5,80.8,26,79.4c9.4-1.4,26.9-10.1,28.2-26.7"/>
</g>
<g id="char-D" class="st0">
	<path class="st3" d="M-14.2,16.3C-0.9-12,43.5-2.1,46.3,35.7C49.1,73,31.9,77.4,17.8,78c-13.3,0.6-28.3-5.8-34.3-5.8
		c-5,0-4,5.8,0,5.8c5,0,11.9-2.3,17.1-18.2s11.8-44.7,11.8-44.7"/>
</g>
<g id="char-C" class="st0">
	<path class="st3" d="M46,50.5C43,67,31.3,89.8,9.6,78.2c-18.7-10-5.8-43.1,2.3-56C17,14.1,38.7-9.9,49.8,4.5
		c4.9,6.4-1.7,22.5-9.1,24.3c-7.8,1.9-1.1-13.9,11.2-7.3"/>
</g>
<g id="char-B" class="st0">
	<path class="st3" d="M10.9,16.9c0,0-6.4,28.8-11.6,44.7s-11.9,18.2-16.9,18.2c-4,0-5-5.8,0-5.8c6,0,20.9,7.5,34.1,5.8
		c10.6-1.3,24.4-7,26-19.2C44.3,47.3,30,39.2,19.4,35.7c5.5,0.7,12.2,0,16.4-3.9c8.2-7.4,4.7-20.5-3.5-26.2
		C15.5-6.2-6.3,2-16.6,18.1"/>
</g>
<g id="char-A" class="st0">
	<g class="st1">
		<path class="st2" d="M42.5,43.9c-3.8,4.8-10.2,5.2-15.9,5.3c-8.8,0.3-17.6,0.1-26.3,1.5c-8.7,1.4-17.1,5-22.7,12
			c-3.9,4.9-5.7,12.8,1,16.3C-5.4,87.3,2.7,50.7,7,39.7C13.8,22.2,20.1,13.5,34.3,0c-6.9,26.7-13.7,53.3-20.6,80"/>
	</g>
</g>
<g id="char-z" class="st0">
	<path class="st3" d="M-0.1,49.6c0,0,3.4-11.3,9.6-9.2C16.3,42.6,5,60,5,60s4-4.4,7.2-2.9c3.4,1.7-1.2,26-7.7,22.4
		c-4.7-2.6,1.1-9.7,6.6-15.2c7.4-7.4,11.9-9.7,14-14.9"/>
</g>
<g id="char-y" class="st0">
	<g class="st1">
		<path class="st2" d="M14.2,53.1c0,0-9.4,50.1-15.9,46.5c-4.7-2.6,1.2-24.7,10.5-35c7-7.7,11.9-9.7,14-14.9"/>
		<path class="st2" d="M2.9,40c0,0-1.5,3-2.5,7.8c-0.8,3.7-1.4,11.3,5.4,12.1c4.2,0.5,7.8-3.3,9-8.8L17.4,40"/>
	</g>
</g>
<g id="char-x" class="st0">
	<g class="st1">
		<path class="st2" d="M22.9,49.7c0,0-3.8,10.3-9.8,10.3c-3.5,0-8-5.5-10-10.3S0,39.9,0,39.9"/>
		<line class="st2" x1="11.2" y1="39.9" x2="-1.6" y2="66.3"/>
	</g>
</g>
<g id="char-w" class="st0">
	<g class="st1">
		<path class="st2" d="M2.5,40c0,0-1.2,3-2.2,7.8C-0.5,51.6-1.1,59.1,5.6,60c4.2,0.5,7.8-3.3,9-8.8L17.3,40"/>
		<path class="st2" d="M42.9,43.8c0,0-2.4,3.3-6.7,2.8s-4-6.7-4-6.7l-2.7,11.2c-1.2,5.4-4.7,9.3-9,8.8c-6.7-0.8-5.9-8.2-5.1-11.9
			c1-4.8,2-8,2-8"/>
	</g>
</g>
<g id="char-v" class="st0">
	<path class="st3" d="M0.4,40.1c0,0-0.8,6.4-0.2,9.8S3.5,59.9,5.8,60s7.3-5.9,9.2-10.1s2.5-9.8,2.5-9.8s2,5.3,4.6,6
		c4,1.2,7-2.1,7-2.1"/>
</g>
<g id="char-u" class="st0">
	<g class="st1">
		<path class="st2" d="M14.4,51.8C14,55.1,13.2,60,16.7,60c6,0,9.8-10.3,9.8-10.3"/>
		<path class="st2" d="M2.5,40c0,0-1.2,3-2.2,7.8C-0.5,51.6-1.1,59.1,5.6,60c4.2,0.5,7.8-3.3,9-8.8L17.3,40"/>
	</g>
</g>
<g id="char-t" class="st0">
	<g class="st1">
		<path class="st2" d="M11.7,49.7c0,0-3.8,10.3-9.8,10.3c-3.5,0-3.2-3.9-2.3-8.1S12.8,0,12.8,0"/>
		<line class="st2" x1="12.2" y1="36.4" x2="-5.8" y2="36.4"/>
	</g>
</g>
<g id="char-s" class="st0">
	<path class="st3" d="M0,49.6c0,0,1.2-3.8,5.3-7.4c6-5.4,10.2-11.4,7.3-11.4c-2.7,0,1.7,9.9,3.5,14.5c1.7,4.3,2.3,14-6.2,14.7
		c-8.5,0.7-8-7.9-6.5-9.4c2.9-2.9,7.2,8.1,13.9,8c6.3-0.1,9.8-9,9.8-9"/>
</g>
<g id="char-r" class="st0">
	<path class="st3" d="M0,49.7c0.8-2.6,3.4-9.8,5.4-10.1c1.3-0.2,7.3,2,7.7,2.9s-2.3,6.2-2.9,9.3C9.5,55,9,60,12.5,60
		c6,0,9.8-10.3,9.8-10.3"/>
</g>
<g id="char-q" class="st0">
	<g class="st1">
		<path class="st2" d="M2.3,100.2C9,75.7,16.6,44,16.6,44l-1.9,7.9C14.2,55.1,13.5,60,17,60c6,0,9.8-10.3,9.8-10.3"/>
		<path class="st2" d="M14.6,52.3c-1.2,5.4-4.7,8.4-8.9,7.5s-6.6-6.1-5.4-11.5s4-9,9.7-8.2c1.5,0.2,2.6,0.7,3.4,1.5"/>
	</g>
</g>
<g id="char-p" class="st0">
	<path class="st3" d="M21.9,50.1c0,0-3.5,9.3-12.5,5.2c-5.3-2.5-7.8,2-7.8,2c0.8,0.9,2,1.6,3.4,2.2c5.4,2,8-2.6,9.6-7.9
		s0.1-10.3-3.9-11.5s-8.8,2.8-10.4,8.1l-13.6,51.9"/>
</g>
<g id="char-o" class="st0">
	<path class="st3" d="M24.2,43.9c0,0-3.3,4-9.1,3.3c-2.6-0.3-8.6-2.6-9.3-5c-0.6-2.2,2.7-2.5,4.6-2.1c3.6,0.8,5.8,2.5,4.3,11.6
		c-0.9,5.5-4.9,9.1-9.1,8.2s-6.5-7-5.2-12.1c0.8-3.2,2.1-4.9,2.1-4.9"/>
</g>
<g id="char-n">
	<g>
		<path class="st2" d="M0,60c1.7-6.2,3.9-14.5,5.7-21.4"/>
		<path class="st2" d="M4.3,44.1c0,0,5.1-5.7,9.3-4.1c4.9,1.8,2.1,8.6,1.4,11.7c-0.7,3-1.2,8.1,2.3,8.1c6,0,9.8-10.3,9.8-10.3"/>
	</g>
</g>
<g id="char-m" class="st0">
	<g class="st1">
		<path class="st2" d="M-2.8,60c0,0,4.1-14.8,5.9-21.7"/>
		<path class="st2" d="M1.4,44.4c0,0,3.5-6,8.7-4.1c3.2,1.1,2.6,5.3,2.1,7.3"/>
		<path class="st2" d="M34.4,49.7c0,0-3.8,10.3-9.8,10.3c-3.5,0-3-5.1-2.3-8.1c0.7-3,3.5-9.8-1.4-11.7c-4.2-1.6-7.5,2.8-8.1,4.9
			c-0.5,2.1-1.6,6.1-1.6,6.1"/>
	</g>
</g>
<g id="char-l" class="st0">
	<path class="st3" d="M11.6,49.7c0,0-3.8,10.3-9.8,10.3c-3.5,0-3.2-3.9-2.3-8.1S12.7,0,12.7,0"/>
</g>
<g id="char-k" class="st0">
	<g class="st1">
		<path class="st2" d="M-2.7,60C4.1,35.5,12.6,0,12.6,0"/>
		<path class="st2" d="M25.7,19.9L1.6,43.8c0,0,5-5.5,9.3-4c4.9,1.8,2.1,8.6,1.4,11.7c-0.7,3-1.2,8.5,2.3,8.5c6,0,9.8-10.7,9.8-10.7
			"/>
	</g>
</g>
<g id="char-j" class="st0">
	<g class="st1">
		<line class="st2" x1="3.2" y1="37.4" x2="4.1" y2="33.9"/>
		<path class="st2" d="M7.7,49.7c-2.1,5.2-7,7.2-14,14.9c-9.4,10.3-15.3,32.4-10.5,35c6.5,3.6,13-34.9,15.9-46.4s3.4-13.3,3.4-13.3"
			/>
	</g>
</g>
<g id="char-i" class="st0">
	<g class="st1">
		<line class="st2" x1="2.9" y1="37.5" x2="3.8" y2="34"/>
		<path class="st2" d="M11.5,49.7c0,0-3.8,10.3-9.8,10.3c-3.5,0-3.2-3.9-2.3-8.1C-0.4,50.7,0.8,46,2.3,40"/>
	</g>
</g>
<g id="char-h" class="st0">
	<g class="st1">
		<path class="st2" d="M-2.7,60C4,35.5,12.5,0,12.5,0"/>
		<path class="st2" d="M1.6,44c0,0,5-5.5,9.3-4c4.9,1.8,2.1,8.6,1.4,11.7c-0.7,3-1.2,8.3,2.3,8.3c6,0,9.8-10.5,9.8-10.5"/>
	</g>
</g>
<g id="char-g" class="st0">
	<g class="st1">
		<g>
			<g>
				<path class="st2" d="M14.1,59.3"/>
				<path class="st2" d="M19.5,52.6"/>
			</g>
		</g>
		<path class="st2" d="M14.6,51.6c-1.2,5.4-4.8,9.1-9,8.2s-6.6-6.1-5.4-11.5s4-9,9.7-8.2C15.7,40.9,15.8,46.2,14.6,51.6z"/>
		<path class="st2" d="M14.2,53.1c0,0-9.4,50.1-15.9,46.5c-4.7-2.6,1.2-24.7,10.5-35c7-7.7,11.9-9.7,14-14.9"/>
	</g>
</g>
<g id="char-f" class="st0">
	<g class="st1">
		<path class="st2" d="M14.6,43.9c0,0-2.5,3-6.2,3s-7-3.2-7-3.2c6.1,4.9,3.1,35.5-4,36.2c-4.9,0.5,3.3-33.8,3.3-33.8
			C5.4,29.3,12.8,0,12.8,0"/>
	</g>
</g>
<g id="char-e" class="st0">
	<path class="st3" d="M21.7,49.7c-2.5,6.3-12.6,14.9-19.5,6.8c-2.7-3.2-2.5-5.2-1.6-9.2c0.8-3.5,2.8-7.6,7-7.7
		c2.1,0,4.3,1.5,4.6,3.6c0.3,1.6-0.6,3.3-1.9,4.4c-1.3,1.1-2.8,1.7-4.4,2.3c-2.1,0.7-4.1,0.7-5.6,2.4"/>
</g>
<g id="char-d" class="st0">
	<g class="st1">
		<g>
			<g>
				<path class="st2" d="M14.5,59.5"/>
			</g>
		</g>
		<path class="st2" d="M14.5,52.3c-1.2,5.4-4.7,8.4-8.8,7.5s-6.6-6.1-5.4-11.5s4-9,9.7-8.2c1.5,0.2,2.6,0.7,3.4,1.5"/>
		<path class="st2" d="M26.7,49.7c0,0-3.8,10.3-9.8,10.3c-3.5,0-3.2-3.9-2.3-8.1C15.5,47.6,27.8,0,27.8,0"/>
		<g>
			<g>
				<path class="st2" d="M15.2,59.5"/>
			</g>
		</g>
	</g>
</g>
<g id="char-c" class="st0">
	<path class="st3" d="M20.5,53c-4.7,11.5-23.1,8.3-20.1-5.4c0.8-3.5,2.8-7.6,7-7.7c2.1,0,4.3,1.5,4.6,3.6c0.3,1.6-0.6,3.3-1.9,4.4"
		/>
</g>
<g id="char-b" class="st0">
	<path class="st3" d="M24.2,44c0,0-3.4,3.7-9.1,2.6c-2.1-0.4-8.7-1.8-9.3-4.4c-0.8-2.9,2.8-2.4,4.5-1.5c3.6,1.8,5,7.4,4.2,11
		c-1.1,5.5-4.8,9.1-9,8.2s-6.4-6.7-5.2-12.1L12.3,0"/>
</g>
<g id="char-a" class="st0">
	<g class="st1">
		<path class="st2" d="M14.6,51.7c-0.4,3.3-1.2,8.3,2.3,8.3c6,0,9.8-10.3,9.8-10.3"/>
		<path class="st2" d="M14.6,51.7c-1.2,5.4-4.8,9.1-9,8.2s-6.6-6.1-5.4-11.5s4-9,9.7-8.2S15.8,46.2,14.6,51.7z"/>
	</g>
</g>
<g id="guides">
	<g>
		<path class="st2" d="M-37.2,60c0,0,4.1-14.8,5.9-21.7"/>
		<path class="st2" d="M-33,44.4c0,0,3.5-6,8.7-4.1c3.2,1.1,2.6,5.3,2.1,7.3"/>
		<path class="st2" d="M0,49.7C0,49.7-3.8,60-9.8,60c-3.5,0-3-5.1-2.3-8.1c0.7-3,3.5-9.8-1.4-11.7c-4.2-1.6-7.5,2.8-8.1,4.9
			c-0.5,2.1-1.6,6.1-1.6,6.1"/>
	</g>
</g>
</svg>
